<?xml version="1.0" encoding="UTF-8" standalone="no"?>
<!-- Created with Inkscape (http://www.inkscape.org/) -->

<svg
   width="35mm"
   height="35mm"
   viewBox="0 0 35 34.999999"
   version="1.1"
   id="svg1"
   xmlns="http://www.w3.org/2000/svg"
   xmlns:svg="http://www.w3.org/2000/svg">
  <defs
     id="defs1" />
  <g
     id="layer1"
     transform="translate(-88.106249,-137.31875)">
    <g
       id="text5-8"
       style="font-weight:bold;font-size:10.5833px;line-height:1.25;font-family:'Veteran Typewriter';-inkscape-font-specification:'Veteran Typewriter Bold';letter-spacing:-2.2569px;fill:#d16b29;stroke-width:0.264583"
       aria-label="Ku">
      <path
         style="font-weight:normal;font-size:28.2222px;font-family:Sans;-inkscape-font-specification:'Sans, Normal'"
         d="m 105.56337,164.91287 h -3.54156 l -8.116638,-9.13638 -2.039495,2.17729 v 6.95909 H 89.137163 V 144.3939 h 2.728514 v 10.70735 l 9.963213,-10.70735 h 3.30728 l -9.163943,9.64626 z"
         id="path1" />
      <path
         style="font-style:oblique;font-size:28.2222px;font-family:Helvetica;-inkscape-font-specification:'Helvetica, Bold Oblique';fill:#5fa318"
         d="m 115.51587,162.7907 q -0.0689,0.0689 -0.35829,0.41341 -0.28938,0.34451 -0.64767,0.60633 -1.10243,0.82682 -2.0395,1.12999 -0.92328,0.30317 -2.08083,0.30317 -3.33485,0 -3.98253,-2.39778 -0.35829,-1.32292 0.19292,-3.89985 l 1.91547,-9.0537 h 4.02387 l -1.91547,9.0537 q -0.27561,1.28158 -0.11024,1.92925 0.28939,1.14377 1.86035,1.14377 2.01193,0 3.10058,-1.62608 0.57878,-0.88194 0.88195,-2.32888 l 1.73632,-8.17176 h 3.98253 l -3.18327,15.0206 h -3.81716 z"
         id="path2" />
    </g>
  </g>
</svg>
